# xmcd
#
# Track frame offsets: 
#        150
#        16115
#        77882
#        96078
#        129148
#        131663
#        134003
#        138143
#        160265
#        175324
#        206576
#        217697
#        240243
#        251559
#        259276
#
# Disc length: 3553 seconds
#
# Revision: 0
# Processed by: cddbd v1.5.2PL0 Copyright (c) Steve Scherf et al.
# Submitted via: ExactAudioCopy v1.0b3
#
DISCID=c60ddf0f
DTITLE=Son House - WFMT Radio, Chicago, IL, 1965
DYEAR=1965
DGENRE=Blues
TTITLE0=Death Letter
TTITLE1=Interview
TTITLE2=Levee Camp Moan
TTITLE3=Interview
TTITLE4=Song Sermon
TTITLE5=Interview
TTITLE6=I Shall Net Be Moved
TTITLE7=Interview
TTITLE8=Preachin' The Blues
TTITLE9=Interview
TTITLE10=Louise McGee
TTITLE11=Interview
TTITLE12=Empire State Express
TTITLE13=Interview
TTITLE14=Grinnin' In Your Face
EXTD=
EXTT0=
EXTT1=
EXTT2=
EXTT3=
EXTT4=
EXTT5=
EXTT6=
EXTT7=
EXTT8=
EXTT9=
EXTT10=
EXTT11=
EXTT12=
EXTT13=
EXTT14=
PLAYORDER=
